# xmcd
#
# Track frame offsets:
#	150
#	15107
#	32359
#	45751
#	61091
#	78200
#	90199
#	105233
#	120799
#	135184
#	148206
#	167921
#	182029
#	206796
#	224442
#	246937
#	259762
#	291641
#	305410
#
# Disc length: 4314
#
# Revision: 2
# Processed by: cddbd v1.5.1PL0 Copyright (c) Steve Scherf et al.
# Submitted via: audiograbber 1.82.02
# Normalized: r1:DSETVAR1
#
DISCID=f010d813
DTITLE=Various Artist - Blues and Soul The Soul Years 74-75 Vol 4
DYEAR=1900
DGENRE=
TTITLE0=George McCrae - Rock Your Baby
TTITLE1=Johnny Bristol - Hang It On There Baby
TTITLE2=The Three Degrees - When Will I See You Again
TTITLE3=Barry White - You're The First The Last My Everything
TTITLE4=The Isley Brothers - Summer Breeze
TTITLE5=The Commodores - Machine Gun
TTITLE6=The Hues Corporation - Rock The Boat
TTITLE7=Chi-Lites - Homely Girl
TTITLE8=The Tymes - Ms.Grace
TTITLE9=The Miracles - Love Machine (Part 1)
TTITLE10=Esther Phillips - What A Difference A Day Made
TTITLE11=Harold Melvin and The Bluenotes - Bad Luck
TTITLE12=David Ruffin - Walk Away From Love
TTITLE13=Labelle - Lady Marmalade
TTITLE14=The Impressions - First Impressions
TTITLE15=Natalie Cole - This Will Be
TTITLE16=William DeVaughan - Be Thankful For What You've Got
TTITLE17=K.C. and The Sunshine Band - That's The Way I Like It
TTITLE18=Van McCoy - The Hustle
EXTD=
EXTT0=
EXTT1=
EXTT2=
EXTT3=
EXTT4=
EXTT5=
EXTT6=
EXTT7=
EXTT8=
EXTT9=
EXTT10=
EXTT11=
EXTT12=
EXTT13=
EXTT14=
EXTT15=
EXTT16=
EXTT17=
EXTT18=
PLAYORDER=
